<svg width="100%" height="100%" viewBox="0 0 2134 2134" version="1.1" xmlns="http://www.w3.org/2000/svg" xmlns:xlink="http://www.w3.org/1999/xlink" xml:space="preserve" xmlns:serif="http://www.serif.com/" style="fill-rule:evenodd;clip-rule:evenodd;stroke-linejoin:round;stroke-miterlimit:2;"><rect id="rect2" x="253.794" y="316.693" width="1819.42" height="1819.42" style="fill:none;"/><g id="g6"><path id="path4" d="M1503.4,1157.35l-643.164,-643.164l136.456,-136.456c45.486,-50.944 209.233,-42.757 319.308,29.11c110.075,72.777 130.088,116.443 264.725,191.039c107.346,58.222 222.879,114.624 404.821,77.326l-482.146,482.145Zm-64.589,64.59l-643.165,-643.165l-161.018,161.019c-35.479,35.479 -35.479,92.79 -0,128.269l96.429,96.429c35.479,35.479 35.479,93.7 0,129.179c-54.583,54.582 -130.088,100.978 -201.046,153.741c-31.84,23.652 -63.679,48.214 -91.88,76.415c-121.901,121.901 -215.601,290.197 -124.63,380.259c90.061,90.971 258.357,-2.729 380.258,-123.721c28.201,-28.201 52.763,-60.041 77.325,-92.79c51.854,-70.957 98.249,-146.463 153.741,-201.046c35.479,-35.478 92.79,-35.478 128.269,0l96.429,96.429c35.479,35.479 92.791,35.479 128.269,0l161.019,-161.018Z" style="fill-rule:nonzero;"/></g></svg>